# xmcd
#
# Track frame offsets:
#	150
#	19687
#	44180
#	67147
#	92717
#	103430
#	125895
#	146452
#	164417
#	174859
#
# Disc length: 2625 seconds
#
# Revision: 4
# Processed by: cddbd v1.5.1PL2 Copyright (c) Steve Scherf et al.
# Submitted via: dBpowerAMP V4.0
#
DISCID=960a3f0a
DTITLE=Dixieland Parade - Sweet Georgia Brown
DYEAR=1900
DGENRE=blues
TTITLE0=Alliance Hall Dixieland Band - Strike Up the Band
TTITLE1=Hirt, Al - Sweet Georgia Brown
TTITLE2=Dejan's Olympia Brass Band - Amazing Grace
TTITLE3=Dukes of Dixieland - Cherokee
TTITLE4=Hirt, Al - When It's Sleepytime Down South
TTITLE5=Alliance Hall Dixieland Band - Clarinet Marmalade
TTITLE6=Dejan's Olympia Brass Band - Dippermouth Blues
TTITLE7=Dukes of Dixieland - Avalon
TTITLE8=Hirt, Al - Walkin'
TTITLE9=Alliance Hall Dixieland Band - Doctor Jazz
EXTD=
EXTT0=
EXTT1=
EXTT2=
EXTT3=
EXTT4=
EXTT5=
EXTT6=
EXTT7=
EXTT8=
EXTT9=
PLAYORDER=
